<svg xmlns="http://www.w3.org/2000/svg" xmlns:xlink="http://www.w3.org/1999/xlink" viewBox="0 0 166.27 117.24"><defs><style>.cls-1{fill:#404261;}.cls-2{fill:url(#Dégradé_sans_nom_11);}.cls-3{fill:url(#Dégradé_sans_nom_11-2);}.cls-4{fill:url(#Dégradé_sans_nom_11-3);}.cls-5{fill:#fff;}</style><linearGradient id="Dégradé_sans_nom_11" x1="110.93" y1="68.46" x2="130.06" y2="68.46" gradientTransform="translate(131.27 -69.71) rotate(64.86)" gradientUnits="userSpaceOnUse"><stop offset="0" stop-color="#797dbc"/><stop offset="1" stop-color="#9d93c7"/></linearGradient><linearGradient id="Dégradé_sans_nom_11-2" x1="47.28" y1="68.46" x2="66.41" y2="68.46" gradientTransform="translate(94.66 -12.09) rotate(64.86)" xlink:href="#Dégradé_sans_nom_11"/><linearGradient id="Dégradé_sans_nom_11-3" x1="16.37" y1="33.05" x2="143.38" y2="33.05" gradientTransform="matrix(1, 0, 0, 1, 0, 0)" xlink:href="#Dégradé_sans_nom_11"/></defs><title>Asset 6</title><g id="Layer_2" data-name="Layer 2"><g id="Calque_1" data-name="Calque 1"><path class="cls-1" d="M156.66,90.67c4.25,0,5.93,4.25,5.93,7.6,0,4.46-2.58,7.69-6,7.69s-6-3.27-6-7.61C150.57,94.59,152.41,90.67,156.66,90.67Zm.08-2.7c-5.47,0-9.81,3.88-9.81,10.51,0,6.25,4.13,10.17,9.49,10.17,4.78,0,9.85-3.18,9.85-10.5C166.27,92.1,162.43,88,156.74,88Zm-17.9,11.81a6.46,6.46,0,0,1-.29,1.93,5.28,5.28,0,0,1-5,3.68c-3.88,0-5.84-3.23-5.84-7.12,0-4.58,2.45-7.48,5.88-7.48a5.18,5.18,0,0,1,5,3.8,5,5,0,0,1,.21,1.64Zm.57-11.36-.16,3h-.09A6.59,6.59,0,0,0,133,88c-4.54,0-8.91,3.8-8.91,10.51,0,5.47,3.51,9.64,8.42,9.64a7.07,7.07,0,0,0,6.3-3.31h.08V107c0,5-2.7,6.91-6.38,6.91a11.2,11.2,0,0,1-5.8-1.55l-.9,2.73a12.69,12.69,0,0,0,6.58,1.64,10.47,10.47,0,0,0,7.19-2.37c1.92-1.72,2.82-4.5,2.82-9V93.86c0-2.41.08-4,.17-5.44Zm-19,19.79v-3H108.42v-.08l2.13-2c5.6-5.4,9.15-9.36,9.15-14.27,0-3.8-2.41-7.73-8.13-7.73a11.67,11.67,0,0,0-7.52,2.7l1.14,2.54a9,9,0,0,1,5.64-2.25c4,0,5.28,2.49,5.28,5.19,0,4-3.11,7.44-9.9,13.9L103.39,106v2.21ZM82.67,88.42,90,106.65a3,3,0,0,1,.25.94,2.68,2.68,0,0,1-.29.86,11,11,0,0,1-3,4,9.43,9.43,0,0,1-3.15,1.75l.9,3a9.7,9.7,0,0,0,4.41-2.33c2.46-2.13,4.21-5.6,6.79-12.39l5.4-14.1H97.46L93.54,100c-.49,1.43-.9,2.94-1.27,4.13h-.08c-.33-1.19-.82-2.74-1.27-4L86.59,88.42Zm-7,11.49a6.36,6.36,0,0,1-.16,1.55,5.4,5.4,0,0,1-5.27,4.29c-3.89,0-5.85-3.31-5.85-7.31,0-4.38,2.21-7.65,5.93-7.65A5.29,5.29,0,0,1,75.55,95a6.46,6.46,0,0,1,.16,1.51Zm0-20.73V91h-.08a6.6,6.6,0,0,0-6-3c-4.82,0-8.91,4-8.87,10.63,0,6,3.68,10.05,8.46,10.05A7.31,7.31,0,0,0,76,104.77h.08l.16,3.44h3.23c-.12-1.35-.16-3.36-.16-5.11V79.18ZM52.94,101.54a3.86,3.86,0,0,1-.2,1.15A4.93,4.93,0,0,1,48,106a3.19,3.19,0,0,1-3.39-3.44c0-3.84,4.46-4.53,8.38-4.45Zm3.8,6.67a28.54,28.54,0,0,1-.32-4.75v-7.4c0-4-1.48-8.09-7.52-8.09a12.28,12.28,0,0,0-6.5,1.76l.81,2.37a9.85,9.85,0,0,1,5.15-1.47c4,0,4.5,2.94,4.5,4.58v.4C45.22,95.57,41,98.19,41,103a5.64,5.64,0,0,0,6,5.68,7.35,7.35,0,0,0,6.05-2.94h.13l.28,2.5ZM24.08,96.39c.29-2.49,1.88-5.84,5.52-5.84,4,0,5,3.55,5,5.84ZM37.94,99a13.9,13.9,0,0,0,.12-1.68c0-3.64-1.72-9.32-8.18-9.32-5.76,0-9.28,4.7-9.28,10.67s3.64,10,9.73,10a16.14,16.14,0,0,0,6.59-1.22l-.62-2.58a12.89,12.89,0,0,1-5.48,1c-3.59,0-6.7-2-6.78-6.86ZM3.56,83.52a14.16,14.16,0,0,1,3.51-.33c3.76,0,6.34,1.59,6.34,5.15,0,3.15-2.41,5.23-6.22,5.23H3.56ZM0,108.21H3.56V96.27H6.91c3.23.12,4.7,1.55,5.52,5.35a35.19,35.19,0,0,0,1.84,6.59H18c-.58-1.07-1.23-3.72-2.13-7.57-.65-2.86-1.92-4.82-4.05-5.56V95a7.22,7.22,0,0,0,5.19-7A6.84,6.84,0,0,0,14.8,82.7c-1.72-1.56-4.17-2.25-8-2.25A36.87,36.87,0,0,0,0,81Z"/><ellipse class="cls-2" cx="120.49" cy="68.46" rx="10.38" ry="9.37" transform="translate(7.33 148.45) rotate(-64.86)"/><ellipse class="cls-3" cx="56.85" cy="68.46" rx="10.38" ry="9.37" transform="translate(-29.28 90.83) rotate(-64.86)"/><path class="cls-4" d="M138.93,57.21h-1.71q.09-1.53.09-3.09A49.78,49.78,0,0,0,91.68,4.51a4.2,4.2,0,0,0-3-4.38A4.26,4.26,0,0,0,83.53,3.3a4.67,4.67,0,0,0-.14,1.22A49.74,49.74,0,0,0,46.27,26.27c-.85,0-2,0-2.72,0-3.68,0-7.31.07-7.46.14A1.34,1.34,0,0,0,35.41,28a1.43,1.43,0,0,0,1.34,1h4.6a1.33,1.33,0,0,1,1.21.8,1.29,1.29,0,0,1,.17.65c0,.1,0,.21,0,.31a1.51,1.51,0,0,1-.25.51,1.59,1.59,0,0,1-1.43.64q-10,0-20,0c-1.11,0-2.21,0-3.31,0a1.22,1.22,0,0,0-1.24.78,1.41,1.41,0,0,0,1.42,2h14A1.42,1.42,0,0,1,33.16,36a1.52,1.52,0,0,1-1.64,1.6H22.16a4.18,4.18,0,0,0-.5,0,1.35,1.35,0,0,0-1,1.92,1.4,1.4,0,0,0,1.45.81H35.4a1.45,1.45,0,0,1,1.24,2.24,1.56,1.56,0,0,1-1.51.67H26.4a2.9,2.9,0,0,0-.66.06,1.35,1.35,0,0,0-1,1.53A1.33,1.33,0,0,0,26,46c2.14,0,4.28,0,6.42,0a4.86,4.86,0,0,1,1.37.17,1.43,1.43,0,0,1-.25,2.71c-1,0-12.19,0-15.91,0a1.29,1.29,0,0,0-1.19.94,1.4,1.4,0,0,0,1.49,1.86c3.57,0,7.15,0,10.72,0a2.11,2.11,0,0,1,.62.07,1.45,1.45,0,0,1-.54,2.83H20.88a1.42,1.42,0,0,0-1.36,1,1.33,1.33,0,0,0,.64,1.55s1.18,0,3,0a4.46,4.46,0,0,0-4.26,4.44h0a4.46,4.46,0,0,0,4.44,4.45H44.47a15.09,15.09,0,0,1,1-2.94c3.27-7,11-10.2,17.28-7.25a12.3,12.3,0,0,1,6.84,10.19H108a15.83,15.83,0,0,1,1-2.94c3.26-7,11-10.2,17.27-7.25a12.28,12.28,0,0,1,6.84,10.19h5.81a4.46,4.46,0,0,0,4.45-4.45h0A4.47,4.47,0,0,0,138.93,57.21Z"/><path class="cls-5" d="M101.57,10.6S124.4,16.66,127.73,37C127.73,37,124.12,21.13,101.57,10.6Z"/></g></g></svg>